<svg width="785" height="785" viewBox="0 0 785 785" fill="none" xmlns="http://www.w3.org/2000/svg">
<path d="M80 40H309V740H80V40ZM355 740H232V550H345C364.333 550 384 548.333 404 545C424 541.667 442.333 534.667 459 524C475.667 513.333 489 497.333 499 476C509.667 454.667 515 426 515 390C515 354 509.667 325.333 499 304C489 282.667 475.667 266.667 459 256C442.333 245.333 424 238.333 404 235C384 231.667 364.333 230 345 230H232V40H355C436.333 40 506 54 564 81.9999C622.667 110 667.333 150 698 202C729.333 254 745 316.667 745 390C745 462.667 729.333 525.333 698 578C667.333 630 622.667 670 564 698C506 726 436.333 740 355 740Z" fill="url(#paint0_linear_33_5)"/>
<defs>
<linearGradient id="paint0_linear_33_5" x1="775" y1="900.712" x2="7.50166" y2="-113.822" gradientUnits="userSpaceOnUse">
<stop offset="0.286771"/>
<stop offset="1" stop-color="#7F0000"/>
</linearGradient>
</defs>
</svg>
